<svg xmlns="http://www.w3.org/2000/svg" viewBox="0 0 512 512">
    <defs>
        <style>
            .cls-1{fill:#e6e6e6;}.cls-2{fill:none;}.cls-2,.cls-5{stroke:#000;stroke-miterlimit:10;stroke-width:8px;}.cls-3{fill:#fff;}.cls-4{fill:#9c3;}.cls-5{fill:#b3b3b3;fill-opacity:0.8;}
        </style>
    </defs>
    <title>icon</title>
    <g id="Layer_2" data-name="Layer 2">
        <path class="cls-1"
              d="M210.9,497.36V440a57.83,57.83,0,0,0-13.43-36.83l-169.78-199c-.91-.82-2.91-4.16-2-4.56.38-.17,2.66-7.44,2.67-9.29.11-17.94,119.33-49,119.33-49,89.31-6.21,97.14-7.16,137.5-1.67C317,144,422.5,157,461,193.33c1.21,1.14-.45,11.29-.87,11.79L290,404a54.56,54.56,0,0,0-13.1,35.47v28.21a13.9,13.9,0,0,1-8.39,12.76l-50.32,21.73Z"/>
        <path class="cls-2"
              d="M29.4,205.15l-.67-.34c-2.76-1.41-3.11-4.49-2.73-7.56,1.13-9.08,5.92-13.23,10.5-16.92C62.79,159.18,154,132.77,245.81,136.68c89.35,3.8,159.75,24.75,201.25,44,8.7,4,22.17,14.42,14.45,22.29-6.94,7.07-10.1,2.34-11.92,3.67l3.56-2.16"/>
    </g>
    <g id="Layer_1" data-name="Layer 1">
        <rect class="cls-3" x="80.18" y="9.43" width="385.33" height="254.62"
              transform="translate(-29.13 180.95) rotate(-34.95)"/>
        <path class="cls-4"
              d="M251.23,117.67l-126.1,144L42,142.75,167.22,55.23c13.59,8.27,28.06,17.86,43,29C225.53,95.53,239.17,106.84,251.23,117.67Z"/>
        <path class="cls-4"
              d="M355.51,234.29,187.85,351.46l-39.87-57L279.37,144.6c11.63,11.33,23.72,24,35.92,38.06A623,623,0,0,1,355.51,234.29Z"/>
        <path class="cls-4"
              d="M305.33,115.07l104-119.31,94.32,135L387.51,211.92a658.15,658.15,0,0,0-42.16-54.41C331.73,141.72,318.25,127.61,305.33,115.07Z"/>
        <path class="cls-4"
              d="M201.31,31.41,357.84-78l28.69,41L277.19,88.14C265.81,78,253,67.5,238.83,57,225.85,47.33,213.26,38.86,201.31,31.41Z"/>
    </g>
    <g id="Layer_4" data-name="Layer 4">
        <path class="cls-5"
              d="M210.9,497.36V440a57.83,57.83,0,0,0-13.43-36.83l-169.78-199c-1.2-1.08-.54-3.42,1.19-2.75,45.79,17.8,121.24,41.05,213.53,41.35a589.89,589.89,0,0,0,215.9-40.25,1.63,1.63,0,0,1,1.82,2.58L290,404a54.56,54.56,0,0,0-13.1,35.47v28.21a13.9,13.9,0,0,1-8.39,12.76l-50.32,21.73A5.22,5.22,0,0,1,210.9,497.36Z"/>
    </g>
</svg>
