<svg xmlns="http://www.w3.org/2000/svg" viewBox="0 0 512 512"><defs><style>.prefix__cls-4{fill:#9c3}</style></defs><g id="prefix__Layer_2" data-name="Layer 2"><path d="M210.9 497.36V440a57.83 57.83 0 00-13.43-36.83l-169.78-199c-.91-.82-2.91-4.16-2-4.56.38-.17 2.66-7.44 2.67-9.29.11-17.94 119.33-49 119.33-49 89.31-6.21 97.14-7.16 137.5-1.67C317 144 422.5 157 461 193.33c1.21 1.14-.45 11.29-.87 11.79L290 404a54.56 54.56 0 00-13.1 35.47v28.21a13.9 13.9 0 01-8.39 12.76l-50.32 21.73z" fill="#e6e6e6"/><path d="M29.4 205.15l-.67-.34c-2.76-1.41-3.11-4.49-2.73-7.56 1.13-9.08 5.92-13.23 10.5-16.92 26.29-21.15 117.5-47.56 209.31-43.65 89.35 3.8 159.75 24.75 201.25 44 8.7 4 22.17 14.42 14.45 22.29-6.94 7.07-10.1 2.34-11.92 3.67l3.56-2.16" stroke="#000" stroke-miterlimit="10" stroke-width="8" fill="none"/></g><g id="prefix__Layer_1" data-name="Layer 1"><path transform="rotate(-34.95 272.822 136.74)" fill="#fff" d="M80.18 9.43h385.33v254.62H80.18z"/><path class="prefix__cls-4" d="M251.23 117.67l-126.1 144L42 142.75l125.22-87.52a551.381 551.381 0 0143 29 551.852 551.852 0 0141.01 33.44zM355.51 234.29L187.85 351.46l-39.87-57L279.37 144.6c11.63 11.33 23.72 24 35.92 38.06a623 623 0 0140.22 51.63zM305.33 115.07l104-119.31 94.32 135-116.14 81.16a658.15 658.15 0 00-42.16-54.41 658.732 658.732 0 00-40.02-42.44zM201.31 31.41L357.84-78l28.69 41L277.19 88.14C265.81 78 253 67.5 238.83 57a547.989 547.989 0 00-37.52-25.59z"/></g><path d="M210.9 497.36V440a57.83 57.83 0 00-13.43-36.83l-169.78-199c-1.2-1.08-.54-3.42 1.19-2.75 45.79 17.8 121.24 41.05 213.53 41.35a589.89 589.89 0 00215.9-40.25 1.63 1.63 0 011.82 2.58L290 404a54.56 54.56 0 00-13.1 35.47v28.21a13.9 13.9 0 01-8.39 12.76l-50.32 21.73a5.22 5.22 0 01-7.29-4.81z" fill="#b3b3b3" fill-opacity=".8" stroke="#000" stroke-miterlimit="10" stroke-width="8" id="prefix__Layer_4" data-name="Layer 4"/></svg>
